
<svg xmlns="http://www.w3.org/2000/svg" version="1.1" xmlns:xlink="http://www.w3.org/1999/xlink" preserveAspectRatio="none" x="0px" y="0px" width="210px" height="700px" viewBox="0 0 210 700">
<defs>
<g id="Layer1_0_FILL">
<path fill="#FFFFFF" stroke="none" d="
M 44.25 23.9
Q 44.25 20.6 41.65 17.75 38.8 14.9 34.9 14.9 30.95 14.9 28.1 17.75 25.35 20.6 25.35 23.9
L 25.35 29.25 22.75 29.25
Q 21.85 29.25 21.1 30 20.45 30.6 20.45 31.55
L 20.45 49
Q 20.45 50.05 21.1 50.5 21.85 51.25 22.75 51.25
L 47.15 51.25
Q 48.1 51.25 48.75 50.5 49.45 49.95 49.45 49
L 49.45 31.55
Q 49.45 30.6 48.75 30 48.1 29.25 47.15 29.25
L 44.25 29.25 44.25 23.9
M 40.9 23.9
L 40.9 29.25 28.85 29.25 28.85 23.9
Q 28.85 21.9 30.5 20.25 32.25 18.3 34.9 18.3 37.4 18.3 39.25 20.25 40.9 22.05 40.9 23.9 Z"/>
</g>

<g id="Layer1_1_FILL">
<path fill="#000000" fill-opacity="0.00392156862745098" stroke="none" d="
M 70 70
L 70 0 0 0 0 70 70 70 Z"/>
</g>

<g id="Layer1_2_FILL">
<path fill="#000000" fill-opacity="0.00392156862745098" stroke="none" d="
M 70 70
L 0 70 0 140 70 140 70 70 Z"/>
</g>

<g id="Layer1_3_FILL">
<path fill="#000000" fill-opacity="0.00392156862745098" stroke="none" d="
M 70 70
L 70 140 140 140 140 70 70 70 Z"/>
</g>

<g id="Layer1_4_FILL">
<path fill="#FFFFFF" stroke="none" d="
M 117.15 93.95
Q 111.55 90.2 105.15 90.2 98.9 90.2 93.05 94 87.1 98.1 83.55 104.35 82.9 105.15 83.55 105.75 87.3 112.6 93.05 116.25 98.7 120 105.15 120 111.35 120 117.15 116.2 122.7 112.55 126.65 105.75 126.95 105.15 126.65 104.35 122.95 97.7 117.15 93.95
M 112.15 105.1
Q 112.15 108.1 110.15 110.1 107.95 112.25 105.15 112.25 102.15 112.25 100.05 110.1 98.05 108.2 98.05 105.1 98.05 102.3 100.15 100.2 102.3 98 105.15 98 108.05 98 110.15 100.2 112.15 102.2 112.15 105.1 Z"/>
</g>

<g id="Layer1_5_FILL">
<path fill="#000000" fill-opacity="0.00392156862745098" stroke="none" d="
M 210 140
L 210 70 140 70 140 140 210 140 Z"/>
</g>

<g id="Layer1_6_FILL">
<path fill="#FFFFFF" stroke="none" d="
M 187.1 93.95
Q 181.55 90.2 175.1 90.2 168.9 90.2 163.1 94 157.3 97.85 153.6 104.35 152.85 105.15 153.6 105.75 157.3 112.6 163.1 116.25 168.75 120 175.1 120 181.45 120 187.1 116.2 192.7 112.55 196.6 105.75 196.95 105.15 196.6 104.35 192.95 97.65 187.1 93.95
M 182.1 105.1
Q 182.1 108.2 180.1 110.1 177.95 112.25 175.1 112.25 172.2 112.25 170.1 110.1 168.1 108.25 168.1 105.1 168.1 102.3 170.1 100.2 172.3 98 175.1 98 178.05 98 180.1 100.2 182.1 102.15 182.1 105.1 Z"/>
</g>

<g id="Layer1_7_FILL">
<path fill="#000000" fill-opacity="0.00392156862745098" stroke="none" d="
M 70 140
L 0 140 0 210 70 210 70 140 Z"/>
</g>

<g id="Layer1_8_FILL">
<path fill="#FFFFFF" stroke="none" d="
M 35.2 160.15
Q 28.9 160.15 23.1 164 17.35 167.85 13.6 174.4 12.85 175.15 13.6 175.75 17.3 182.6 23.1 186.25 28.75 190 35.2 190 41.3 190 47.2 186.2 52.75 182.5 56.7 175.75 56.85 175.15 56.7 174.4 52.85 167.65 47.2 163.9 41.45 160.15 35.2 160.15
M 35.2 168
Q 37.9 168 40.2 170.15 42.2 172.4 42.2 175.15 42.2 177.85 40.2 180.15 38.05 182.25 35.2 182.25 32.15 182.25 30.1 180.15 28.1 178.25 28.1 175.15 28.1 172.35 30.2 170.15 32.35 168 35.2 168 Z"/>
</g>

<g id="Layer1_9_FILL">
<path fill="#000000" fill-opacity="0.00392156862745098" stroke="none" d="
M 140 140
L 70 140 70 210 140 210 140 140 Z"/>
</g>

<g id="Layer1_10_FILL">
<path fill="#FFFFFF" stroke="none" d="
M 117.15 163.9
Q 111.55 160.15 105.15 160.15 98.95 160.15 93.05 164 87.1 168.1 83.55 174.4 82.9 175.15 83.55 175.75 87.3 182.6 93.05 186.25 98.7 190 105.15 190 111.35 190 117.15 186.2 122.7 182.55 126.65 175.75 126.95 175.15 126.65 174.4 122.9 167.65 117.15 163.9
M 105.15 168
Q 107.9 168 110.15 170.15 112.15 172.25 112.15 175.15 112.15 178 110.15 180.15 108 182.25 105.15 182.25 102.15 182.25 100.05 180.15 98.05 178.1 98.05 175.15 98.05 172.35 100.15 170.15 102.3 168 105.15 168 Z"/>
</g>

<g id="Layer1_11_FILL">
<path fill="#000000" fill-opacity="0.00392156862745098" stroke="none" d="
M 140 140
L 140 210 210 210 210 140 140 140 Z"/>
</g>

<g id="Layer1_12_FILL">
<path fill="#FFFFFF" stroke="none" d="
M 175.1 160.15
Q 168.9 160.15 163.1 164 157.35 167.85 153.6 174.4 152.85 175.15 153.6 175.75 157.3 182.6 163.1 186.25 168.75 190 175.1 190 181.45 190 187.1 186.2 192.7 182.55 196.6 175.75 197 175.15 196.6 174.4 192.9 167.65 187.1 163.9 181.55 160.15 175.1 160.15
M 175.1 168
Q 177.95 168 180.1 170.15 182.1 172.15 182.1 175.15 182.1 178.1 180.1 180.15 177.95 182.25 175.1 182.25 172.15 182.25 170.1 180.15 168.1 178.25 168.1 175.15 168.1 172.3 170.1 170.15 172.35 168 175.1 168 Z"/>
</g>

<g id="Layer1_13_FILL">
<path fill="#000000" fill-opacity="0.00392156862745098" stroke="none" d="
M 0 210
L 0 280 70 280 70 210 0 210 Z"/>
</g>

<g id="Layer1_14_FILL">
<path fill="#FFFFFF" stroke="none" d="
M 56.7 245.75
Q 56.85 245.15 56.7 244.4 52.85 237.65 47.2 233.9 41.45 230.15 35.2 230.15 28.9 230.15 23.1 234 17.35 237.85 13.6 244.4 12.85 245.15 13.6 245.75 17.3 252.6 23.1 256.25 28.75 260 35.2 260 41.3 260 47.2 256.25 52.75 252.45 56.7 245.75
M 35.2 238
Q 37.9 238 40.2 240.15 42.2 242.4 42.2 245.15 42.2 247.85 40.2 250.15 38.05 252.25 35.2 252.25 32.15 252.25 30.1 250.15 28.1 248.25 28.1 245.15 28.1 242.35 30.2 240.15 32.35 238 35.2 238 Z"/>
</g>

<g id="Layer1_15_FILL">
<path fill="#000000" fill-opacity="0.00392156862745098" stroke="none" d="
M 140 280
L 140 210 70 210 70 280 140 280 Z"/>
</g>

<g id="Layer1_16_FILL">
<path fill="#FFFFFF" stroke="none" d="
M 126.65 245.75
Q 126.95 245.15 126.65 244.4 122.9 237.65 117.15 233.9 111.55 230.15 105.15 230.15 98.95 230.15 93.05 234 87.1 238.1 83.55 244.4 82.9 245.15 83.55 245.75 87.3 252.6 93.05 256.25 98.7 260 105.15 260 111.3 260 117.15 256.25 122.65 252.6 126.65 245.75
M 98.05 245.15
Q 98.05 242.35 100.15 240.15 102.3 238 105.15 238 107.9 238 110.15 240.15 112.15 242.25 112.15 245.15 112.15 248 110.15 250.15 108 252.25 105.15 252.25 102.15 252.25 100.05 250.15 98.05 248.1 98.05 245.15 Z"/>
</g>

<g id="Layer1_17_FILL">
<path fill="#000000" fill-opacity="0.00392156862745098" stroke="none" d="
M 140 210
L 140 280 210 280 210 210 140 210 Z"/>
</g>

<g id="Layer1_18_FILL">
<path fill="#FFFFFF" stroke="none" d="
M 153.6 244.4
Q 152.85 245.15 153.6 245.75 157.3 252.6 163.1 256.25 168.75 260 175.1 260 181.4 260 187.1 256.25 192.8 252.5 196.6 245.75 197 245.15 196.6 244.4 192.9 237.65 187.1 233.9 181.55 230.15 175.1 230.15 168.9 230.15 163.1 234 157.35 237.85 153.6 244.4
M 168.1 245.15
Q 168.1 242.3 170.1 240.15 172.35 238 175.1 238 177.95 238 180.1 240.15 182.1 242.15 182.1 245.15 182.1 248.1 180.1 250.15 177.95 252.25 175.1 252.25 172.15 252.25 170.1 250.15 168.1 248.25 168.1 245.15 Z"/>
</g>

<g id="Layer1_19_FILL">
<path fill="#000000" fill-opacity="0.00392156862745098" stroke="none" d="
M 70 280
L 0 280 0 350 70 350 70 280 Z"/>
</g>

<g id="Layer1_20_FILL">
<path fill="#FFFFFF" stroke="none" d="
M 47.2 326.25
Q 52.75 322.45 56.7 315.75 56.95 315.2 56.7 314.3 52.9 307.65 47.2 303.9 41.45 300.15 35.2 300.15 28.9 300.15 23.1 304 17.25 308 13.6 314.3 12.85 315.2 13.6 315.75 17.3 322.6 23.1 326.25 28.75 330 35.2 330 41.3 330 47.2 326.25
M 30.1 320.15
Q 28.1 318.25 28.1 315.15 28.1 312.35 30.2 310.15 32.35 308 35.2 308 37.9 308 40.2 310.15 42.2 312.4 42.2 315.15 42.2 317.85 40.2 320.15 38.05 322.25 35.2 322.25 32.15 322.25 30.1 320.15 Z"/>
</g>

<g id="Layer1_21_FILL">
<path fill="#000000" fill-opacity="0.00392156862745098" stroke="none" d="
M 70 280
L 70 350 140 350 140 280 70 280 Z"/>
</g>

<g id="Layer1_22_FILL">
<path fill="#FFFFFF" stroke="none" d="
M 126.65 315.75
Q 127.05 315.2 126.65 314.3 122.95 307.7 117.15 303.9 111.55 300.15 105.15 300.15 98.95 300.15 93.05 304 87.15 308.1 83.55 314.3 82.8 315.2 83.55 315.75 87.3 322.6 93.05 326.25 98.7 330 105.15 330 111.3 330 117.15 326.25 122.65 322.6 126.65 315.75
M 112.15 315.15
Q 112.15 318 110.15 320.15 108 322.25 105.15 322.25 102.15 322.25 100.05 320.15 98.05 318.1 98.05 315.15 98.05 312.35 100.15 310.15 102.3 308 105.15 308 107.9 308 110.15 310.15 112.15 312.25 112.15 315.15 Z"/>
</g>

<g id="Layer1_23_FILL">
<path fill="#000000" fill-opacity="0.00392156862745098" stroke="none" d="
M 140 280
L 140 350 210 350 210 280 140 280 Z"/>
</g>

<g id="Layer1_24_FILL">
<path fill="#FFFFFF" stroke="none" d="
M 153.6 314.3
Q 152.85 315.2 153.6 315.75 157.3 322.6 163.1 326.25 168.75 330 175.1 330 181.4 330 187.1 326.25 192.8 322.5 196.6 315.75 197.05 315.2 196.6 314.3 192.85 307.65 187.1 303.9 181.55 300.15 175.1 300.15 168.9 300.15 163.1 304 157.25 308 153.6 314.3
M 168.1 315.15
Q 168.1 312.3 170.1 310.15 172.35 308 175.1 308 177.95 308 180.1 310.15 182.1 312.15 182.1 315.15 182.1 318.1 180.1 320.15 177.95 322.25 175.1 322.25 172.15 322.25 170.1 320.15 168.1 318.25 168.1 315.15 Z"/>
</g>

<g id="Layer1_25_FILL">
<path fill="#000000" fill-opacity="0.00392156862745098" stroke="none" d="
M 70 350
L 0 350 0 420 70 420 70 350 Z"/>
</g>

<g id="Layer1_26_FILL">
<path fill="#FFFFFF" stroke="none" d="
M 13.6 384.3
Q 12.85 385.2 13.6 385.75 17.3 392.6 23.1 396.25 28.75 400 35.2 400 41.3 400 47.2 396.25 52.75 392.45 56.7 385.75 56.95 385.2 56.7 384.3 52.9 377.65 47.2 373.9 41.45 370.15 35.2 370.15 28.9 370.15 23.1 374 17.25 378 13.6 384.3
M 35.2 378
Q 37.9 378 40.2 380.15 42.2 382.4 42.2 385.15 42.2 387.85 40.2 390.15 38.05 392.25 35.2 392.25 32.15 392.25 30.1 390.15 28.1 388.25 28.1 385.15 28.1 382.35 30.2 380.15 32.35 378 35.2 378 Z"/>
</g>

<g id="Layer1_27_FILL">
<path fill="#000000" fill-opacity="0.00392156862745098" stroke="none" d="
M 140 350
L 70 350 70 420 140 420 140 350 Z"/>
</g>

<g id="Layer1_28_FILL">
<path fill="#FFFFFF" stroke="none" d="
M 93.05 374
Q 87.15 378.1 83.55 384.3 82.8 385.2 83.55 385.75 87.3 392.6 93.05 396.25 98.7 400 105.15 400 111.3 400 117.15 396.25 122.65 392.6 126.65 385.75 127.05 385.2 126.65 384.3 122.95 377.7 117.15 373.9 111.55 370.15 105.15 370.15 98.95 370.15 93.05 374
M 98.05 385.15
Q 98.05 382.35 100.15 380.15 102.3 378 105.15 378 107.9 378 110.15 380.15 112.15 382.25 112.15 385.15 112.15 388 110.15 390.15 108 392.25 105.15 392.25 102.15 392.25 100.05 390.15 98.05 388.1 98.05 385.15 Z"/>
</g>

<g id="Layer1_29_FILL">
<path fill="#000000" fill-opacity="0.00392156862745098" stroke="none" d="
M 210 350
L 140 350 140 420 210 420 210 350 Z"/>
</g>

<g id="Layer1_30_FILL">
<path fill="#FFFFFF" stroke="none" d="
M 153.6 384.3
Q 152.85 385.2 153.6 385.75 157.3 392.6 163.1 396.25 168.75 400 175.1 400 181.4 400 187.1 396.25 192.8 392.5 196.6 385.75 197.05 385.2 196.6 384.3 192.85 377.65 187.1 373.9 181.55 370.15 175.1 370.15 168.9 370.15 163.1 374 157.25 378 153.6 384.3
M 175.1 378
Q 177.95 378 180.1 380.15 182.1 382.15 182.1 385.15 182.1 388.1 180.1 390.15 177.95 392.25 175.1 392.25 172.15 392.25 170.1 390.15 168.1 388.25 168.1 385.15 168.1 382.3 170.1 380.15 172.35 378 175.1 378 Z"/>
</g>

<g id="Layer1_31_FILL">
<path fill="#000000" fill-opacity="0.00392156862745098" stroke="none" d="
M 0 420
L 0 490 70 490 70 420 0 420 Z"/>
</g>

<g id="Layer1_32_FILL">
<path fill="#FFFFFF" stroke="none" d="
M 35.2 440.15
Q 28.9 440.15 23.1 444 17.25 448 13.6 454.3 12.85 455.2 13.6 455.75 17.3 462.6 23.1 466.25 28.75 470 35.2 470 41.3 470 47.2 466.25 52.75 462.45 56.7 455.75 56.95 455.2 56.7 454.3 52.9 447.65 47.2 443.9 41.45 440.15 35.2 440.15
M 35.2 448
Q 37.9 448 40.2 450.15 42.2 452.4 42.2 455.15 42.2 457.85 40.2 460.15 38.05 462.25 35.2 462.25 32.15 462.25 30.1 460.15 28.1 458.25 28.1 455.15 28.1 452.35 30.2 450.15 32.35 448 35.2 448 Z"/>
</g>

<g id="Layer1_33_FILL">
<path fill="#000000" fill-opacity="0.00392156862745098" stroke="none" d="
M 140 490
L 140 420 70 420 70 490 140 490 Z"/>
</g>

<g id="Layer1_34_FILL">
<path fill="#FFFFFF" stroke="none" d="
M 117.15 443.9
Q 111.55 440.15 105.15 440.15 98.95 440.15 93.05 444 87.15 448.1 83.55 454.3 82.8 455.2 83.55 455.75 87.3 462.6 93.05 466.25 98.7 470 105.15 470 111.3 470 117.15 466.25 122.65 462.6 126.65 455.75 127.05 455.2 126.65 454.3 122.95 447.7 117.15 443.9
M 105.15 448
Q 107.9 448 110.15 450.15 112.15 452.25 112.15 455.15 112.15 458 110.15 460.15 108 462.25 105.15 462.25 102.15 462.25 100.05 460.15 98.05 458.1 98.05 455.15 98.05 452.35 100.15 450.15 102.3 448 105.15 448 Z"/>
</g>

<g id="Layer1_35_FILL">
<path fill="#000000" fill-opacity="0.00392156862745098" stroke="none" d="
M 210 490
L 210 420 140 420 140 490 210 490 Z"/>
</g>

<g id="Layer1_36_FILL">
<path fill="#FFFFFF" stroke="none" d="
M 187.1 443.9
Q 181.55 440.15 175.1 440.15 168.9 440.15 163.1 444 157.25 448 153.6 454.3 152.85 455.2 153.6 455.75 157.3 462.6 163.1 466.25 168.75 470 175.1 470 181.4 470 187.1 466.25 192.8 462.5 196.6 455.75 197.05 455.2 196.6 454.3 192.85 447.65 187.1 443.9
M 175.1 448
Q 177.95 448 180.1 450.15 182.1 452.15 182.1 455.15 182.1 458.1 180.1 460.15 177.95 462.25 175.1 462.25 172.15 462.25 170.1 460.15 168.1 458.25 168.1 455.15 168.1 452.3 170.1 450.15 172.35 448 175.1 448 Z"/>
</g>

<g id="Layer1_37_FILL">
<path fill="#000000" fill-opacity="0.00392156862745098" stroke="none" d="
M 70 490
L 0 490 0 560 70 560 70 490 Z"/>
</g>

<g id="Layer1_38_FILL">
<path fill="#FFFFFF" stroke="none" d="
M 47.2 536.25
Q 52.75 532.45 56.7 525.75 56.95 525.2 56.7 524.3 53.05 517.85 47.2 514 41.4 510.15 35.2 510.15 28.9 510.15 23.1 514 17.25 518 13.6 524.3 12.85 525.2 13.6 525.75 17.3 532.6 23.1 536.25 28.75 540 35.2 540 41.3 540 47.2 536.25
M 28.1 525.1
Q 28.1 522.3 30.2 520.25 32.3 518 35.2 518 37.95 518 40.2 520.25 42.2 522.25 42.2 525.1 42.2 528 40.2 530.1 38 532.25 35.2 532.25 32.2 532.25 30.1 530.1 28.1 528.25 28.1 525.1 Z"/>
</g>

<g id="Layer1_39_FILL">
<path fill="#000000" fill-opacity="0.00392156862745098" stroke="none" d="
M 70 490
L 70 560 140 560 140 490 70 490 Z"/>
</g>

<g id="Layer1_40_FILL">
<path fill="#FFFFFF" stroke="none" d="
M 126.65 525.75
Q 127.05 525.2 126.65 524.3 122.95 517.75 117.15 514 111.5 510.15 105.15 510.15 98.95 510.15 93.05 514 87.15 518.1 83.55 524.3 82.8 525.2 83.55 525.75 87.3 532.6 93.05 536.25 98.7 540 105.15 540 111.3 540 117.15 536.25 122.65 532.6 126.65 525.75
M 98.05 525.1
Q 98.05 522.3 100.15 520.25 102.25 518 105.15 518 108.05 518 110.15 520.25 112.15 522.15 112.15 525.1 112.15 528.1 110.15 530.1 107.95 532.25 105.15 532.25 102.15 532.25 100.05 530.1 98.05 528.2 98.05 525.1 Z"/>
</g>

<g id="Layer1_41_FILL">
<path fill="#000000" fill-opacity="0.00392156862745098" stroke="none" d="
M 210 560
L 210 490 140 490 140 560 210 560 Z"/>
</g>

<g id="Layer1_42_FILL">
<path fill="#FFFFFF" stroke="none" d="
M 175.1 510.15
Q 168.9 510.15 163.1 514 157.25 518 153.6 524.3 152.85 525.2 153.6 525.75 157.3 532.6 163.1 536.25 168.75 540 175.1 540 181.4 540 187.1 536.25 192.8 532.5 196.6 525.75 197.05 525.2 196.6 524.3 192.95 517.75 187.1 514 181.5 510.15 175.1 510.15
M 182.1 525.1
Q 182.1 528.2 180.1 530.1 177.95 532.25 175.1 532.25 172.2 532.25 170.1 530.1 168.1 528.25 168.1 525.1 168.1 522.25 170.1 520.25 172.3 518 175.1 518 178.1 518 180.1 520.25 182.1 522.1 182.1 525.1 Z"/>
</g>

<g id="Layer1_43_FILL">
<path fill="#000000" fill-opacity="0.00392156862745098" stroke="none" d="
M 70 560
L 0 560 0 630 70 630 70 560 Z"/>
</g>

<g id="Layer1_44_FILL">
<path fill="#FFFFFF" stroke="none" d="
M 35.2 580.25
Q 28.8 580.25 23.1 584 17.25 588 13.6 594.3 12.85 595.2 13.6 595.75 17.3 602.6 23.1 606.25 28.75 610 35.2 610 41.3 610 47.2 606.25 52.75 602.45 56.7 595.75 56.95 595.2 56.7 594.3 53.05 587.85 47.2 584 41.45 580.25 35.2 580.25
M 30.2 590.25
Q 32.3 588 35.2 588 37.95 588 40.2 590.25 42.2 592.25 42.2 595.1 42.2 598 40.2 600.1 38 602.25 35.2 602.25 32.2 602.25 30.1 600.1 28.1 598.25 28.1 595.1 28.1 592.3 30.2 590.25 Z"/>
</g>

<g id="Layer1_45_FILL">
<path fill="#000000" fill-opacity="0.00392156862745098" stroke="none" d="
M 140 560
L 70 560 70 630 140 630 140 560 Z"/>
</g>

<g id="Layer1_46_FILL">
<path fill="#FFFFFF" stroke="none" d="
M 117.15 584
Q 111.55 580.25 105.15 580.25 98.85 580.25 93.05 584 87.15 588.1 83.55 594.3 82.8 595.2 83.55 595.75 87.3 602.6 93.05 606.25 98.7 610 105.15 610 111.3 610 117.15 606.25 122.65 602.6 126.65 595.75 127.05 595.2 126.65 594.3 122.95 587.75 117.15 584
M 100.15 590.25
Q 102.25 588 105.15 588 108.05 588 110.15 590.25 112.15 592.15 112.15 595.1 112.15 598.1 110.15 600.1 107.95 602.25 105.15 602.25 102.15 602.25 100.05 600.1 98.05 598.2 98.05 595.1 98.05 592.3 100.15 590.25 Z"/>
</g>

<g id="Layer1_47_FILL">
<path fill="#000000" fill-opacity="0.00392156862745098" stroke="none" d="
M 140 560
L 140 630 210 630 210 560 140 560 Z"/>
</g>

<g id="Layer1_48_FILL">
<path fill="#FFFFFF" stroke="none" d="
M 187.1 584
Q 181.55 580.25 175.1 580.25 168.8 580.25 163.1 584 157.25 588 153.6 594.3 152.85 595.2 153.6 595.75 157.3 602.6 163.1 606.25 168.75 610 175.1 610 181.4 610 187.1 606.25 192.8 602.5 196.6 595.75 197.05 595.2 196.6 594.3 192.95 587.75 187.1 584
M 170.1 590.25
Q 172.3 588 175.1 588 178.1 588 180.1 590.25 182.1 592.1 182.1 595.1 182.1 598.2 180.1 600.1 177.95 602.25 175.1 602.25 172.2 602.25 170.1 600.1 168.1 598.25 168.1 595.1 168.1 592.25 170.1 590.25 Z"/>
</g>

<g id="Layer1_49_FILL">
<path fill="#000000" fill-opacity="0.00392156862745098" stroke="none" d="
M 70 630
L 0 630 0 700 70 700 70 630 Z"/>
</g>

<g id="Layer1_50_FILL">
<path fill="#FFFFFF" stroke="none" d="
M 35.2 650.25
Q 28.8 650.25 23.1 654 17.25 658 13.6 664.3 12.85 665.2 13.6 665.75 17.3 672.6 23.1 676.25 28.75 680 35.2 680 41.3 680 47.2 676.25 52.75 672.45 56.7 665.75 56.95 665.2 56.7 664.3 53.05 657.85 47.2 654 41.45 650.25 35.2 650.25
M 35.2 658
Q 37.95 658 40.2 660.25 42.2 662.25 42.2 665.1 42.2 668 40.2 670.1 38 672.25 35.2 672.25 32.2 672.25 30.1 670.1 28.1 668.25 28.1 665.1 28.1 662.3 30.2 660.25 32.3 658 35.2 658 Z"/>
</g>

<g id="Layer1_51_FILL">
<path fill="#000000" fill-opacity="0.00392156862745098" stroke="none" d="
M 70 630
L 70 700 140 700 140 630 70 630 Z"/>
</g>

<g id="Layer1_52_FILL">
<path fill="#FFFFFF" stroke="none" d="
M 117.15 654
Q 111.55 650.25 105.15 650.25 98.85 650.25 93.05 654 87.15 658.1 83.55 664.3 82.8 665.2 83.55 665.75 87.3 672.6 93.05 676.25 98.7 680 105.15 680 111.3 680 117.15 676.25 122.65 672.6 126.65 665.75 127.05 665.2 126.65 664.3 122.95 657.75 117.15 654
M 110.15 660.25
Q 112.15 662.15 112.15 665.1 112.15 668.1 110.15 670.1 107.95 672.25 105.15 672.25 102.15 672.25 100.05 670.1 98.05 668.2 98.05 665.1 98.05 662.3 100.15 660.25 102.25 658 105.15 658 108.05 658 110.15 660.25 Z"/>
</g>

<g id="Layer1_53_FILL">
<path fill="#000000" fill-opacity="0.00392156862745098" stroke="none" d="
M 140 630
L 140 700 210 700 210 630 140 630 Z"/>
</g>

<g id="Layer1_54_FILL">
<path fill="#FFFFFF" stroke="none" d="
M 153.6 664.3
Q 152.85 665.2 153.6 665.75 157.3 672.6 163.1 676.25 168.75 680 175.1 680 181.4 680 187.1 676.25 192.8 672.5 196.6 665.75 197.05 665.2 196.6 664.3 192.95 657.75 187.1 654 181.55 650.25 175.1 650.25 168.8 650.25 163.1 654 157.25 658 153.6 664.3
M 168.1 665.1
Q 168.1 662.25 170.1 660.25 172.3 658 175.1 658 178.1 658 180.1 660.25 182.1 662.1 182.1 665.1 182.1 668.2 180.1 670.1 177.95 672.25 175.1 672.25 172.2 672.25 170.1 670.1 168.1 668.25 168.1 665.1 Z"/>
</g>

<g id="Layer1_55_FILL">
<path fill="#000000" fill-opacity="0.00392156862745098" stroke="none" d="
M 0 70
L 70 70 70 0 0 0 0 70 Z"/>
</g>

<g id="Layer1_56_FILL">
<path fill="#FFFFFF" stroke="none" d="
M 20.6 32.1
Q 21.35 20.4 31.5 17.5 24.7 17.05 20.6 21.5 16.25 26.3 16.5 34
L 16.5 52.35 20.6 52.35 20.6 32.1
M 53.4 33.95
Q 53.9 22.35 42.9 18.3 41 17.8 39.5 17.8 37.8 17.95 36.5 18.3 26.45 21.6 26 32.75
L 26 52.2 53.4 52.2 53.4 33.95 Z"/>
</g>
</defs>

<g transform="matrix( 1, 0, 0, 1, 0,0) ">
<use xlink:href="#Layer1_0_FILL"/>
</g>

<g transform="matrix( 1, 0, 0, 1, 0,0) ">
<use xlink:href="#Layer1_1_FILL"/>
</g>

<g transform="matrix( 1, 0, 0, 1, 0,0) ">
<use xlink:href="#Layer1_2_FILL"/>
</g>

<g transform="matrix( 1, 0, 0, 1, 0,0) ">
<use xlink:href="#Layer1_3_FILL"/>
</g>

<g transform="matrix( 1, 0, 0, 1, 0,0) ">
<use xlink:href="#Layer1_4_FILL"/>
</g>

<g transform="matrix( 1, 0, 0, 1, 0,0) ">
<use xlink:href="#Layer1_5_FILL"/>
</g>

<g transform="matrix( 1, 0, 0, 1, 0,0) ">
<use xlink:href="#Layer1_6_FILL"/>
</g>

<g transform="matrix( 1, 0, 0, 1, 0,0) ">
<use xlink:href="#Layer1_7_FILL"/>
</g>

<g transform="matrix( 1, 0, 0, 1, 0,0) ">
<use xlink:href="#Layer1_8_FILL"/>
</g>

<g transform="matrix( 1, 0, 0, 1, 0,0) ">
<use xlink:href="#Layer1_9_FILL"/>
</g>

<g transform="matrix( 1, 0, 0, 1, 0,0) ">
<use xlink:href="#Layer1_10_FILL"/>
</g>

<g transform="matrix( 1, 0, 0, 1, 0,0) ">
<use xlink:href="#Layer1_11_FILL"/>
</g>

<g transform="matrix( 1, 0, 0, 1, 0,0) ">
<use xlink:href="#Layer1_12_FILL"/>
</g>

<g transform="matrix( 1, 0, 0, 1, 0,0) ">
<use xlink:href="#Layer1_13_FILL"/>
</g>

<g transform="matrix( 1, 0, 0, 1, 0,0) ">
<use xlink:href="#Layer1_14_FILL"/>
</g>

<g transform="matrix( 1, 0, 0, 1, 0,0) ">
<use xlink:href="#Layer1_15_FILL"/>
</g>

<g transform="matrix( 1, 0, 0, 1, 0,0) ">
<use xlink:href="#Layer1_16_FILL"/>
</g>

<g transform="matrix( 1, 0, 0, 1, 0,0) ">
<use xlink:href="#Layer1_17_FILL"/>
</g>

<g transform="matrix( 1, 0, 0, 1, 0,0) ">
<use xlink:href="#Layer1_18_FILL"/>
</g>

<g transform="matrix( 1, 0, 0, 1, 0,0) ">
<use xlink:href="#Layer1_19_FILL"/>
</g>

<g transform="matrix( 1, 0, 0, 1, 0,0) ">
<use xlink:href="#Layer1_20_FILL"/>
</g>

<g transform="matrix( 1, 0, 0, 1, 0,0) ">
<use xlink:href="#Layer1_21_FILL"/>
</g>

<g transform="matrix( 1, 0, 0, 1, 0,0) ">
<use xlink:href="#Layer1_22_FILL"/>
</g>

<g transform="matrix( 1, 0, 0, 1, 0,0) ">
<use xlink:href="#Layer1_23_FILL"/>
</g>

<g transform="matrix( 1, 0, 0, 1, 0,0) ">
<use xlink:href="#Layer1_24_FILL"/>
</g>

<g transform="matrix( 1, 0, 0, 1, 0,0) ">
<use xlink:href="#Layer1_25_FILL"/>
</g>

<g transform="matrix( 1, 0, 0, 1, 0,0) ">
<use xlink:href="#Layer1_26_FILL"/>
</g>

<g transform="matrix( 1, 0, 0, 1, 0,0) ">
<use xlink:href="#Layer1_27_FILL"/>
</g>

<g transform="matrix( 1, 0, 0, 1, 0,0) ">
<use xlink:href="#Layer1_28_FILL"/>
</g>

<g transform="matrix( 1, 0, 0, 1, 0,0) ">
<use xlink:href="#Layer1_29_FILL"/>
</g>

<g transform="matrix( 1, 0, 0, 1, 0,0) ">
<use xlink:href="#Layer1_30_FILL"/>
</g>

<g transform="matrix( 1, 0, 0, 1, 0,0) ">
<use xlink:href="#Layer1_31_FILL"/>
</g>

<g transform="matrix( 1, 0, 0, 1, 0,0) ">
<use xlink:href="#Layer1_32_FILL"/>
</g>

<g transform="matrix( 1, 0, 0, 1, 0,0) ">
<use xlink:href="#Layer1_33_FILL"/>
</g>

<g transform="matrix( 1, 0, 0, 1, 0,0) ">
<use xlink:href="#Layer1_34_FILL"/>
</g>

<g transform="matrix( 1, 0, 0, 1, 0,0) ">
<use xlink:href="#Layer1_35_FILL"/>
</g>

<g transform="matrix( 1, 0, 0, 1, 0,0) ">
<use xlink:href="#Layer1_36_FILL"/>
</g>

<g transform="matrix( 1, 0, 0, 1, 0,0) ">
<use xlink:href="#Layer1_37_FILL"/>
</g>

<g transform="matrix( 1, 0, 0, 1, 0,0) ">
<use xlink:href="#Layer1_38_FILL"/>
</g>

<g transform="matrix( 1, 0, 0, 1, 0,0) ">
<use xlink:href="#Layer1_39_FILL"/>
</g>

<g transform="matrix( 1, 0, 0, 1, 0,0) ">
<use xlink:href="#Layer1_40_FILL"/>
</g>

<g transform="matrix( 1, 0, 0, 1, 0,0) ">
<use xlink:href="#Layer1_41_FILL"/>
</g>

<g transform="matrix( 1, 0, 0, 1, 0,0) ">
<use xlink:href="#Layer1_42_FILL"/>
</g>

<g transform="matrix( 1, 0, 0, 1, 0,0) ">
<use xlink:href="#Layer1_43_FILL"/>
</g>

<g transform="matrix( 1, 0, 0, 1, 0,0) ">
<use xlink:href="#Layer1_44_FILL"/>
</g>

<g transform="matrix( 1, 0, 0, 1, 0,0) ">
<use xlink:href="#Layer1_45_FILL"/>
</g>

<g transform="matrix( 1, 0, 0, 1, 0,0) ">
<use xlink:href="#Layer1_46_FILL"/>
</g>

<g transform="matrix( 1, 0, 0, 1, 0,0) ">
<use xlink:href="#Layer1_47_FILL"/>
</g>

<g transform="matrix( 1, 0, 0, 1, 0,0) ">
<use xlink:href="#Layer1_48_FILL"/>
</g>

<g transform="matrix( 1, 0, 0, 1, 0,0) ">
<use xlink:href="#Layer1_49_FILL"/>
</g>

<g transform="matrix( 1, 0, 0, 1, 0,0) ">
<use xlink:href="#Layer1_50_FILL"/>
</g>

<g transform="matrix( 1, 0, 0, 1, 0,0) ">
<use xlink:href="#Layer1_51_FILL"/>
</g>

<g transform="matrix( 1, 0, 0, 1, 0,0) ">
<use xlink:href="#Layer1_52_FILL"/>
</g>

<g transform="matrix( 1, 0, 0, 1, 0,0) ">
<use xlink:href="#Layer1_53_FILL"/>
</g>

<g transform="matrix( 1, 0, 0, 1, 0,0) ">
<use xlink:href="#Layer1_54_FILL"/>
</g>

<g transform="matrix( 1, 0, 0, 1, 0,70) ">
<use xlink:href="#Layer1_55_FILL"/>
</g>

<g transform="matrix( 1, 0, 0, 1, 0,70) ">
<use xlink:href="#Layer1_56_FILL"/>
</g>
</svg>
