
<svg xmlns="http://www.w3.org/2000/svg" version="1.1" xmlns:xlink="http://www.w3.org/1999/xlink" preserveAspectRatio="none" x="0px" y="0px" width="135px" height="175px" viewBox="0 0 135 175">
<defs>
<g id="Layer0_0_MEMBER_0_MEMBER_0_MEMBER_0_FILL">
<path fill="#000000" stroke="none" d="
M 111 44.1
Q 108.45 39.35 104.65 35.75 100.55 32.1 95.9 30 85.7 25.55 74.4 24.65
L 65.8 25.15
Q 59.85 24.7 54.15 26.4 48.55 28.1 41.8 32.25 36.5 35.5 31.75 41.55 29.6 44.45 28.1 47.05
L 27.1 49
Q 25.7 51.75 24.75 54.85 21.3 64.95 21 77.6 21.05 78.1 16.85 82.25 12.6 86.5 12.6 86.85 12.75 87.15 15.9 86.5 18.8 86 19.85 85.6 19.2 98.95 13 107.6 11.2 110.1 9.1 112.1 7.65 113.35 7.8 113.35 12.8 113.45 16.5 111.6 18.4 110.65 19.1 109.75 18.05 113.2 12.55 117.35
L 7.9 120.95
Q 12.55 121.5 16.6 120.45 20.9 119.4 24.5 116.7 26 125.35 28.35 131.9 31.8 141.1 36.5 144.6 37 144.85 36.9 143.25
L 36.7 141 39.2 143.7
Q 42.05 146.65 45.7 148.1 68.65 156.6 93.3 148.2 96.7 146.7 99.4 143.35 101.35 140.45 101.4 140.7 101.6 141.5 101.3 143.15 100.8 145.2 100.8 146.35 105.9 142.75 108.3 137.25 108.6 137.8 108.9 139.35 109.1 140.5 109.55 141.4 111.75 137.85 114.15 132.7 118.8 122.75 119.55 115.6 120.3 107.65 119.3 102.2 117.9 96.4 117.55 92.25 119.95 95.85 123.8 98.35 127.3 100.7 127.25 99.6
L 121.05 83.85
Q 118.95 77 118.3 69.85 116.75 59.4 115.8 55.75 114.35 50.3 111 44.1 Z"/>
</g>

<g id="Layer0_1_MEMBER_0_MEMBER_0_MEMBER_0_MEMBER_0_FILL">
<path fill="#000000" stroke="none" d="
M 110.95 90.15
Q 110.5 88.7 109.1 87.9 108.6 87.55 107.55 87.55 106.65 87.5 106.15 87.85 105.8 88 105.3 88.5 104.4 89.55 103.7 91.7
L 103.7 91.65 103.1 94.2 103.1 94.45 103.05 94.65
Q 102.5 97.25 100.9 106.25
L 100.85 106.75 100.6 107.5
Q 100.3 108.35 99.2 110.3
L 99.25 110.3
Q 97.45 113.5 97.4 113.9 97.25 114.55 97.45 115.15
L 97.5 115.2
Q 97.75 115.85 98.3 116.15
L 98.35 116.15
Q 98.55 116.25 98.6 116.95 98.6 117.6 98.9 117.5 99.1 117.5 99.9 116.85 100.75 116.1 100.8 115.95
L 100.85 115.95
Q 102.7 114.25 104.4 112.5 107.85 108.7 108.75 106.5 110.25 103.05 111.45 94.9
L 111.45 94.5
Q 111.35 91.35 110.95 90.15
M 23.6 94.5
L 23.9 96.65
Q 24.25 99.1 24.4 99.7 25.65 105 26.3 106.5
L 26.25 106.5
Q 27.55 109.35 28.85 111.35 30.45 113.7 32.15 114.75
L 34.65 116.45 35 116.9
Q 35.35 117.15 35.55 117.2 35.75 117.2 36 116.65 36.15 116.05 36.3 115.9 36.9 115.55 37.2 114.9
L 37.2 114.85
Q 37.45 114.3 37.3 113.55
L 37.3 113.6
Q 37.2 112.95 35.7 110.15
L 35.6 110
Q 34.65 108.15 34.4 107.45 34.4 107.2 34.25 106.95 34.35 106.65 34.25 106.3
L 34.25 106.25 32.05 94.7 31.85 94.15 31.4 91.35
Q 30.2 88.9 28.9 88.3 27.8 87.5 26.05 88.1 25 88.5 24.4 89.9
L 24.4 89.85
Q 23.75 91.15 23.6 94.45
L 23.6 94.5 Z"/>
</g>

<g id="Layer0_1_MEMBER_1_MEMBER_0_MEMBER_0_MEMBER_0_FILL">
<path fill="#D2D2D2" stroke="none" d="
M 48 146.5
Q 42.7 141 41.2 137.05
L 41.2 137
Q 40.25 134 39.85 126.95
L 37.8 132.95
Q 37.75 137.7 38.55 142.8
L 39.35 143.95
Q 41.3 146.8 44.35 150
L 44.4 150.05
Q 48.35 154 51.85 157.2
L 51.7 157.1 56.95 162.8 57.15 162.95
Q 62.25 167.5 66.85 167.35 70.25 167.5 74.65 164.2 75.75 163.4 79.85 159.65 86.95 153.2 89.2 150.8 89.85 150.15 90.85 148.95
L 90.9 148.95 94.35 139.05 93.3 130.05
Q 92.7 135.9 91.95 138.15
L 91.95 138.1
Q 90.45 142.25 85.55 147.3
L 85.55 147.35
Q 83.1 149.9 76.45 155.9
L 76.45 155.95
Q 73.1 159.1 71.65 160.15 68.95 162.2 66.85 162.35 63.85 162.2 60.7 159.4
L 55.25 153.5
Q 51.5 150.1 48 146.5 Z"/>
</g>

<g id="Layer0_1_MEMBER_1_MEMBER_0_MEMBER_0_MEMBER_1_FILL">
<path fill="#000000" stroke="none" d="
M 105.45 70.45
Q 105.4 61.45 103.1 53.8 100.4 44.65 95.25 39.65 89.45 34 80.1 32.05 74.2 30.9 64.9 31.2 60.1 31.35 55.55 32.6
L 55.5 32.6
Q 50.8 34 47.65 35.9 41.2 39.75 36.6 46.1
L 36.6 46.05
Q 30.55 54.45 30.4 64.2
L 30.1 92.65
Q 30.1 95.25 30.5 100.2
L 30.5 100.25
Q 30.85 103.9 32.25 107.75
L 32.25 107.8
Q 33.55 111.25 33.75 112.15 34.4 116.05 34.75 125.9 35.15 135.25 36.5 138.7 37.1 140.6 38.55 142.8 37.75 137.7 37.8 132.95
L 39.85 126.95 39.8 125.7
Q 39.35 114.95 38.7 111.3
L 38.7 111.25
Q 38.55 110.1 37 106 35.9 102.95 35.5 99.75
L 35.55 99.75
Q 35.15 95.1 35.15 92.65
L 35.45 64.25
Q 35.6 56 40.7 49.05 44.6 43.6 50.25 40.2
L 50.2 40.2
Q 52.9 38.65 56.85 37.45
L 56.85 37.5
Q 61.15 36.3 65 36.25 73.45 35.95 79.1 37 86.85 38.6 91.7 43.3 95.95 47.5 98.3 55.25 100.4 62.3 100.4 70.45 100.4 81.35 100.05 92.9
L 99.1 102.3
Q 98.6 105.55 96.8 110.5 94.55 116.55 93.7 126.3
L 93.3 130.05 94.35 139.05 90.9 148.95
Q 95.4 143.65 96.7 139.75
L 96.75 139.75
Q 97.9 136.55 98.7 126.7 99.45 117.95 101.55 112.25 103.5 106.95 104.1 103.05
L 104.1 102.85 105.05 93.2 105.1 93.05
Q 105.45 78.55 105.45 70.45 Z"/>
</g>

<g id="Layer0_1_MEMBER_1_MEMBER_0_MEMBER_0_MEMBER_2_FILL">
<path fill="#FFFFFF" stroke="none" d="
M 100.4 70.45
Q 100.4 62.3 98.3 55.25 95.95 47.5 91.7 43.3 86.85 38.6 79.1 37 73.45 35.95 65 36.25 61.15 36.3 56.85 37.5
L 56.85 37.45
Q 52.9 38.65 50.2 40.2
L 50.25 40.2
Q 44.6 43.6 40.7 49.05 35.6 56 35.45 64.25
L 35.15 92.65
Q 35.15 95.1 35.55 99.75
L 35.5 99.75
Q 35.9 102.95 37 106 38.55 110.1 38.7 111.25
L 38.7 111.3
Q 39.35 114.95 39.8 125.7
L 39.85 126.95
Q 40.25 134 41.2 137
L 41.2 137.05
Q 42.7 141 48 146.5 51.5 150.1 55.25 153.5
L 60.7 159.4
Q 63.85 162.2 66.85 162.35 68.95 162.2 71.65 160.15 73.1 159.1 76.45 155.95
L 76.45 155.9
Q 83.1 149.9 85.55 147.35
L 85.55 147.3
Q 90.45 142.25 91.95 138.1
L 91.95 138.15
Q 92.7 135.9 93.3 130.05
L 93.7 126.3
Q 94.55 116.55 96.8 110.5 98.6 105.55 99.1 102.3
L 100.05 92.9
Q 100.4 81.35 100.4 70.45 Z"/>
</g>

<g id="Layer0_1_MEMBER_2_MEMBER_0_MEMBER_0_MEMBER_0_FILL">
<path fill="#D2D2D2" stroke="none" d="
M 102.9 70.45
Q 102.9 61.9 100.75 54.5 98.2 46.05 93.45 41.45 88.1 36.25 79.6 34.55 74.35 33.45 64.95 33.7 60.65 33.85 56.2 35.05 52 36.3 48.95 38.05 42.95 41.7 38.65 47.55 33.05 55.35 32.9 64.2
L 32.6 92.65
Q 32.6 95.45 33.05 100 33.35 103.35 34.65 106.9 35.85 110.15 36.25 111.7 36.85 115.45 37.3 125.8 37.6 134.25 38.85 137.85 40.4 142.25 46.2 148.25 49.7 151.85 53.55 155.35
L 58.85 161.1
Q 63 164.85 66.85 164.85 69.55 164.85 73.15 162.15 74.55 161.15 78.15 157.8 85.6 150.95 87.4 149.05 92.85 143.3 94.35 138.95 95.35 135.95 96.2 126.5 97.05 117.1 99.2 111.4 101 106.3 101.6 102.65
L 102.6 93
Q 102.9 80.55 102.9 70.45 Z"/>
</g>

<g id="Layer0_2_MEMBER_0_MEMBER_0_MEMBER_0_FILL">
<path fill="#000000" stroke="none" d="
M 102.05 64.5
L 102.5 67.25 102.75 81.2 104.5 85.4 105.15 70.25
Q 105.15 61.5 102.9 53.75 100.2 44.7 95.05 39.7 89.3 34 80.05 32.2 74.45 31 64.9 31.25 60.1 31.5 55.65 32.7
L 55.65 32.75
Q 51.15 33.95 47.8 36
L 47.75 36
Q 41.4 39.8 36.9 46.05 30.85 54.3 30.6 64
L 30.35 92.35
Q 30.35 92.95 30.5 93.2
L 30.6 94.25
Q 30.8 94 31.1 94.2 31.35 94.35 31.5 94
L 32.25 92.5 32.25 96.7
Q 32.9 87.35 33 87.1
L 33.75 79.95 37.4 79.25
Q 42.45 78.2 45.5 77.35
L 53.4 74.75
Q 54.6 74.4 56.95 73.45
L 64.55 70.2 72.15 66 72.5 66 72.4 66.2 72 66.75
Q 71.5 67.5 71.15 67.85 70.55 68.65 69.75 69.45
L 64.9 74.95
Q 64.75 75.05 64.65 75.35
L 64.75 75.5 65.25 75.5
Q 67.55 75.2 68.05 75 68.35 75 72.4 73.85
L 76.25 72.7
Q 83.55 70.05 87.4 68.45 89.95 67.45 99.55 62.7 99.95 62.45 100.4 62.55
L 100.75 62.75
Q 100.95 62.8 101.3 63.05
L 101.65 63.55 102.05 64.5 Z"/>
</g>

<g id="Layer0_3_MEMBER_0_MEMBER_0_MEMBER_0_FILL">
<path fill="#2F142A" stroke="none" d="
M 119.8 43
Q 104.2 39.85 86.9 43 69.4 46.35 51.45 53.85 39.5 59 28.5 66.2 20.45 71.7 13.1 79.95 7.45 87.1 4.15 95.2 6.55 99.75 16.7 101.25 18 98.15 18.95 94.2 19.75 90.5 20 86.85 33.7 71.75 71.9 59.7 101.75 51.3 114.55 57.5 114.9 57.65 115.3 58.35
L 118.3 69.85
Q 135.95 57.7 132.55 47.25 126.4 44.6 119.8 43
M 83.15 22.05
Q 90.5 21.8 96.9 23.15 98.25 20 101.05 17.65
L 100.75 16.15 100.75 16
Q 99.1 11.15 92.9 8 85.05 4.7 71.8 5.6 58.35 7.1 45.5 11.7 40 13.7 34.95 16
L 34.75 16.15
Q 28.35 19.05 22.5 22.65 12.65 28.95 7.15 37
L 7 37.1 6.9 37.3
Q 3.2 42.65 4.55 48.8
L 8.75 60.5
Q 13.95 46.6 38.7 34.25 61.55 23.55 83.15 22.05 Z"/>
</g>

<g id="Layer0_3_MEMBER_0_MEMBER_0_MEMBER_1_FILL">
<path fill="#5F233C" stroke="none" d="
M 132.55 47.25
L 128.65 39.25
Q 128.1 38.25 122.55 36.45 120.8 36.05 118.75 35.7 116.8 35.3 115.05 35.1 106.9 34.15 98.55 34.75 92.7 35.1 84.65 36.5 66.6 40 51 46.2 34.1 53.25 19.1 64 14.05 67.65 10.05 72.2 6.55 76 3.95 80.5
L 3.8 80.7 3.15 81.95
Q 1.85 84.75 1.85 86.2
L 3.9 94.5 3.95 94.6 4.15 95.2
Q 7.45 87.1 13.1 79.95 20.45 71.7 28.5 66.2 39.5 59 51.45 53.85 69.4 46.35 86.9 43 104.2 39.85 119.8 43 126.4 44.6 132.55 47.25 Z"/>
</g>

<g id="Layer0_3_MEMBER_0_MEMBER_0_MEMBER_2_FILL">
<path fill="#347037" stroke="none" d="
M 110.75 10.85
Q 110.6 12.95 108.05 14.6 106.3 15.05 104.15 16
L 101.05 17.65
Q 98.25 20 96.9 23.15 95.75 26.15 97.4 28.4 98.95 21 107.3 19.65 111.25 19.65 113.65 17.15
L 113.65 16.15
Q 113.6 16.1 113.65 16 113.35 12.6 110.75 10.85
M 115.05 35.1
Q 116.8 35.3 118.75 35.7 122.3 32 122.3 27.55 122.3 23.2 118.55 20.05 120.2 29 115.05 35.1 Z"/>
</g>

<g id="Layer0_3_MEMBER_0_MEMBER_0_MEMBER_3_FILL">
<path fill="#8E3455" stroke="none" d="
M 97.4 28.4
Q 95.75 26.15 96.9 23.15 90.5 21.8 83.15 22.05 61.55 23.55 38.7 34.25 13.95 46.6 8.75 60.5 6.8 66.15 10.05 72.2 14.05 67.65 19.1 64 34.1 53.25 51 46.2 66.6 40 84.65 36.5 92.7 35.1 98.55 34.75 96.5 31.55 97.4 28.4 Z"/>
</g>

<g id="Layer0_3_MEMBER_0_MEMBER_0_MEMBER_4_FILL">
<path fill="#8EB26B" stroke="none" d="
M 118.55 20.05
Q 117.7 17.55 117.05 16.15
L 117.05 16
Q 116.2 14.35 115.25 13.1 115.25 14.6 114.4 16
L 114.4 16.15
Q 114.05 16.75 113.65 17.15 111.25 19.65 107.3 19.65 98.95 21 97.4 28.4 96.5 31.55 98.55 34.75 106.9 34.15 115.05 35.1 120.2 29 118.55 20.05 Z"/>
</g>
</defs>

<g transform="matrix( 1, 0, 0, 1, 0,0) ">
<use xlink:href="#Layer0_0_MEMBER_0_MEMBER_0_MEMBER_0_FILL"/>
</g>

<g transform="matrix( 1, 0, 0, 1, 0,0) ">
<use xlink:href="#Layer0_1_MEMBER_0_MEMBER_0_MEMBER_0_MEMBER_0_FILL"/>
</g>

<g transform="matrix( 1, 0, 0, 1, 0,0) ">
<use xlink:href="#Layer0_1_MEMBER_1_MEMBER_0_MEMBER_0_MEMBER_0_FILL"/>
</g>

<g transform="matrix( 1, 0, 0, 1, 0,0) ">
<use xlink:href="#Layer0_1_MEMBER_1_MEMBER_0_MEMBER_0_MEMBER_1_FILL"/>
</g>

<g transform="matrix( 1, 0, 0, 1, 0,0) ">
<use xlink:href="#Layer0_1_MEMBER_1_MEMBER_0_MEMBER_0_MEMBER_2_FILL"/>
</g>

<g transform="matrix( 1, 0, 0, 1, 0,0) ">
<use xlink:href="#Layer0_1_MEMBER_2_MEMBER_0_MEMBER_0_MEMBER_0_FILL"/>
</g>

<g transform="matrix( 1, 0, 0, 1, 0,0) ">
<use xlink:href="#Layer0_2_MEMBER_0_MEMBER_0_MEMBER_0_FILL"/>
</g>

<g transform="matrix( 1, 0, 0, 1, 0,0) ">
<use xlink:href="#Layer0_3_MEMBER_0_MEMBER_0_MEMBER_0_FILL"/>
</g>

<g transform="matrix( 1, 0, 0, 1, 0,0) ">
<use xlink:href="#Layer0_3_MEMBER_0_MEMBER_0_MEMBER_1_FILL"/>
</g>

<g transform="matrix( 1, 0, 0, 1, 0,0) ">
<use xlink:href="#Layer0_3_MEMBER_0_MEMBER_0_MEMBER_2_FILL"/>
</g>

<g transform="matrix( 1, 0, 0, 1, 0,0) ">
<use xlink:href="#Layer0_3_MEMBER_0_MEMBER_0_MEMBER_3_FILL"/>
</g>

<g transform="matrix( 1, 0, 0, 1, 0,0) ">
<use xlink:href="#Layer0_3_MEMBER_0_MEMBER_0_MEMBER_4_FILL"/>
</g>
</svg>
