
<svg xmlns="http://www.w3.org/2000/svg" version="1.1" xmlns:xlink="http://www.w3.org/1999/xlink" preserveAspectRatio="none" x="0px" y="0px" width="370px" height="80px" viewBox="0 0 370 80">
<defs>
<g id="Layer1_0_FILL">
<path fill="#5A5A5A" stroke="none" d="
M 351.25 5.6
L 351.25 5.55 338.65 7.25
Q 338.35 7.25 338.45 7.5
L 338.35 16.3 337.7 16.25
Q 336.5 16.25 335.65 17.1 334.8 17.95 334.75 19.15 334.7 20.4 335.55 21.25 336.4 22.1 337.6 22.15
L 337.65 22.15
Q 338.85 22.1 339.7 21.3 340.55 20.45 340.6 19.25
L 340.65 11.05 349.2 9.95 349.2 14.6 348.5 14.55
Q 347.3 14.55 346.45 15.4 345.6 16.25 345.6 17.5 345.6 18.7 346.45 19.55 347.3 20.45 348.5 20.4 349.7 20.4 350.55 19.6 351.4 18.75 351.45 17.55
L 351.55 5.85
Q 351.55 5.6 351.3 5.6
L 351.25 5.6 Z"/>
</g>

<g id="Layer1_1_FILL">
<path fill="#AAAAAA" stroke="none" d="
M 367.5 0.6
L 367.5 0.5 367.3 0.45 358.8 1.6
Q 358.6 1.6 358.6 1.85
L 358.6 7.7 358.2 7.7
Q 357.35 7.7 356.75 8.3 356.15 8.9 356.15 9.75 356.15 10.6 356.75 11.25 357.35 11.85 358.2 11.85 359.05 11.85 359.65 11.25 360.25 10.65 360.25 9.8
L 360.25 4.3 365.85 3.6 365.85 6.6 365.5 6.6
Q 364.65 6.6 364 7.2 363.4 7.85 363.4 8.7 363.4 9.55 364 10.15 364.65 10.75 365.5 10.75 366.3 10.75 366.9 10.15 367.5 9.55 367.55 8.7
L 367.6 0.8 367.5 0.6 Z"/>
</g>

<g id="Layer0_0_FILL">
<path fill="#000000" stroke="none" d="
M 337.25 33.15
L 337.05 30.4
Q 337.25 29 336.8 27.55
L 336.8 27.2 336.6 26.9
Q 335.95 25.15 334.45 25.15
L 333.35 25.3 333.2 25.4
Q 332.85 25.6 332.4 25.8 332.05 26 331.9 26.3
L 331.8 26.4
Q 331.55 26.8 331.2 27.5 330.85 28.2 330.5 28.4
L 330.5 28.45
Q 330.4 28.4 330 28.4
L 329.75 28.4
Q 329.65 28.4 329.45 28.45 329.2 28.45 328.85 28.5
L 328.6 28.65
Q 327.8 29.2 327.55 30.25 327.4 30.75 327.3 31.35 327.15 31.95 327.35 32.45 327.35 32.65 327.4 32.75 327.5 32.8 327.5 32.85
L 327.65 33.2
Q 328.1 34.25 328.6 34.5 329.15 34.75 330.2 34.85 330.85 35 331.15 35.05 331.5 35.1 332 35.7
L 332.2 36.2
Q 332.55 36.65 332.45 36.7
L 338.15 46.55 331.9 52.7
Q 331.9 52.75 331.4 53.25 330.85 53.75 330.15 54.45 329.4 55.15 328.65 55.8 327.95 56.4 327.55 56.75 326.65 57.55 325.6 58.05 324.55 58.5 323.35 59.2
L 321.6 59.95 320.45 60.7
Q 319.85 60.9 319.45 61.6 319.1 62.3 318.9 62.9
L 318.95 63.05
Q 318.95 63.15 318.9 63.45 318.95 63.75 319.25 64.3 319.55 64.85 320.05 64.85 320.85 65 321.25 65.35 321.6 65.7 321.8 66.1 322 66.5 322.2 66.8 322.45 67.1 323.05 67.1 323.4 67.1 324 67 324.6 66.85 325.4 66.55
L 327.25 66.05
Q 327.9 65.6 328.2 64.95 328.5 64.3 328.8 63.6
L 329.5 61.35 340.25 50.1 346.05 60.35 346.2 60.8 346.15 61.1
Q 345.95 62.35 345.85 63.35 345.8 64.35 346.05 65.35 346 65.6 346.2 65.8 346.55 66.45 347.55 66.8 348.55 67.1 349.1 67.1 349.3 67.1 349.8 66.9 349.85 66.9 350.15 66.75 350.65 66.45 350.95 66 351.3 65.55 351.6 65
L 351.7 64.85 352.9 64.65
Q 353.55 64.4 353.85 64.15 355.05 63.55 355.4 62.3 355.45 62.05 355.45 61.9 355.45 61.65 355.5 61.35
L 355.35 60.75
Q 355.35 60.5 355.15 60.15 354.65 59.2 353.95 58.5 353.2 57.85 352.3 57.75 352.25 57.8 351.8 57.8 351.55 57.8 351.5 57.75 351.35 57.65 351.3 57.65
L 351.15 57.6 350.25 56.65 344.35 46 354.9 35.7
Q 355.5 35.05 356.15 34.65 356.8 34.3 357.65 33.85
L 360.25 32.75
Q 361.2 32.35 361.85 31.9 362.45 31.4 362.75 30.55
L 363.35 28.15 363.4 28.1 363.35 27.75
Q 363.2 27.15 362.4 27.05 361.7 26.95 361.2 26.65
L 361 26.65
Q 360.9 26.55 360.7 26.55
L 360.4 26.55 360.35 26.6
Q 359.8 26.1 359.5 25.4 359.15 24.7 358.5 24.7 358.15 24.7 357.8 24.85 356.7 25.35 356.05 25.95 355.4 26.55 354.95 27.2 354.55 27.85 354.2 28.6 353.85 29.35 353.3 30.15
L 352.35 31.7 352.35 31.75
Q 352.3 31.75 352.3 31.85 352.15 32.05 351.8 32.45 351.45 32.9 351.1 33.3 350.75 33.75 350.5 34.1 350.3 34.4 350.3 34.45
L 342.35 42.3 337.25 33.15
M 292.05 24.7
L 290.85 24.7
Q 290.4 24.7 290 25 289.65 25.35 289.35 25.75 289 26.15 288.8 26.65 288.6 27.15 288.55 27.35
L 288.35 28.1
Q 288 29.65 288.5 30.15
L 288.7 30.85
Q 289.1 31.1 289.3 31.55 289.45 32 289.35 33.1 289.3 34.15 288.85 36.15 288.45 38.15 287.65 41.35
L 286.6 45.7
Q 285.95 48.05 285.25 50.85 284.55 53.65 283.5 57.25 283.4 57.55 283.2 57.65
L 283.25 57.65 283.15 57.7
Q 283.05 57.75 282.85 57.8 282.5 57.95 282.05 58 281.65 58.05 281.25 58.2 280.85 58.4 280.5 58.8 280.15 59.25 279.95 60 279.6 61.75 280.8 62.35 280.5 62.85 280.3 63.15 280.1 63.5 279.95 63.85 279.85 64.35 280.1 64.75 280.4 65.1 281.35 65.8
L 282.25 66.45
Q 282.25 66.5 282.55 66.5 283.1 66.5 283.7 66.2 284.35 65.95 284.9 65.8
L 286.4 65.35 291.5 64.6 303.45 64.6
Q 304.1 64.75 304.7 64.85 305.3 65 305.9 65.3
L 308.4 66.65
Q 309.2 67.2 310.2 67.2 310.7 67.2 311.3 66.9
L 313.55 65.65 313.75 65.3
Q 314.05 65.05 314.2 64.75 314.3 64.3 314.35 64.05 314.35 63.8 314.35 63.3
L 314.2 62.95 314.05 62.85 314.05 62.6
Q 314.05 62.45 313.9 62.45
L 313.85 62.45 314.2 61.95
Q 314.9 61.2 315.2 60 315.5 58.8 315.1 57.95 314.7 57.1 314.2 56.35
L 314.1 56.35 320.05 32.55
Q 320.3 32.05 320.65 31.7 321 31.35 321.4 31
L 322.25 30.05
Q 322.75 29.05 323 28.55
L 323.25 28.05
Q 323.55 26.85 322.95 26.05 322.35 25.3 321.3 25.3 320.85 25.3 320.25 25.6 319.7 25.95 319.3 26.25 319 25.95 318.85 25.55 318.65 25.1 318.3 24.95 318.15 24.9 318.05 24.9
L 317.95 24.85 317.1 24.85 316.75 24.9
Q 316.5 25.05 316.3 25.15 316.1 25.3 315.8 25.4 314.95 25.9 314.15 26.45 313.35 27 312.4 27.15
L 300.1 27.15
Q 299.65 27 299.25 26.9 298.85 26.75 298.4 26.5
L 298.45 26.3
Q 298.1 24.95 296.7 24.95 296.15 24.95 295.6 25.3 294.2 25.3 293.55 25.9 293 25.7 292.75 25.2 292.5 24.7 292.05 24.7
M 295.8 32.1
Q 296.45 31.75 298.05 31.45
L 312.65 31.45
Q 313.25 31.6 313.55 31.95 313.8 32.35 314 32.8 314.25 33.25 314.45 33.7 314.65 34.15 315.05 34.4
L 309.9 54.95
Q 309.75 55.75 309.1 56.4 308.95 56.55 308.65 56.95 308.4 57.35 308.3 57.5 307.8 57.95 307.55 58.2 307.35 58.5 307.15 59.2
L 307 60 306.4 60.05
Q 306.25 60.15 305.75 60.25 305.2 60.35 304.7 60.4 304.15 60.45 303.7 60.5
L 303.3 60.55 294.6 60.55
Q 294.3 60.55 293.75 60.55 293.2 60.5 292.5 60.45 291.85 60.4 291.2 60.35 290.6 60.35 290.15 60.35 289.75 60.35 289.7 60.25 289.75 59.55 289.5 59.15 289.3 58.75 289 58.5 288.7 58.2 288.5 57.95 288.3 57.65 288.45 57.25
L 294.45 33.25
Q 295.1 32.4 295.8 32.1
M 262.55 27.5
Q 261.75 27.3 261 27.1 260.2 26.85 259.6 26.6 259.4 26.1 259.35 25.7 259.3 25.3 258.8 25.3
L 258.55 25.3 257.55 25.7 256.6 25.6 255.25 25.8
Q 254.95 25.6 254.8 25.4 254.6 25.25 254.4 25.1 254.1 24.95 253.75 24.95 253.4 24.9 252.8 24.9 252.4 24.9 252.3 25.05 252.2 25.25 252.15 25.45
L 252.1 25.8
Q 250.2 27.15 249.75 28.8 249.5 29.65 249.8 30.9 250.05 31.25 250.3 31.65 250.5 32 250.7 32.45
L 250.1 37.5 244.9 58.35
Q 244.55 59 244.4 59.45 244.2 59.9 243.55 60.55 243.2 61.1 242.7 61.45 242.25 61.85 241.8 62.2 241.35 62.6 241 63.1 240.65 63.55 240.45 64.3 240.25 64.95 240.55 65.5 240.9 66 241.5 66.35 242.15 66.75 243 66.95 243.85 67.15 244.75 67.15 246.15 67.15 247.4 66.8 248.65 66.35 249.85 66.05 250.15 66.05 250.7 65.7 251.25 65.35 251.55 64.6
L 268 61.85
Q 268.05 61.75 268.3 61.75
L 269 62.35 270.7 62.45
Q 271 62.45 271.75 62.4 272.5 62.35 272.85 62.25
L 273.3 62.2
Q 274.55 61.9 275.15 61.1
L 275.35 60.4 275.25 57.8 275.35 57.5
Q 275.6 57.2 276 57 276.4 56.8 276.45 56.55 276.7 56.4 277 55.85 277.3 55.3 277.6 54.6 277.95 53.9 278.2 53.25 278.45 52.55 278.55 52.3 278.65 51.8 278.55 51.45
L 278.5 51.35
Q 278.3 50.85 278.1 50 277.9 49.25 277.25 49 275.7 48.6 274.1 47.95 272.55 47.25 269.8 45.8
L 277.95 36.45 278.15 36.45
Q 278.75 36.45 279.5 36.15 280.2 35.9 280.85 35.45 281.5 35 282 34.4 282.45 33.8 282.65 33.1 282.9 32.05 282.25 31.55 282 31.35 281.9 31.25 281.85 31.15 281.55 31.15
L 280.6 31.25
Q 280.45 31.25 280.3 31 280.15 30.75 280 30.45 279.85 30.15 279.7 29.85 279.5 29.55 279.35 29.5
L 279.25 29.5
Q 279.15 29.35 278.4 29.3 277.65 29.25 277.35 29.25 276.7 29.25 276.4 29.9 276.15 30.65 275.55 31.2 272.55 30.75 269.7 29.8 266.85 28.85 265.15 28.2 264.75 28.1 264.05 27.95 263.4 27.75 262.55 27.5
M 255.25 35.8
Q 255.75 34.4 256.5 33.4 256.85 32.95 257.25 32.7 257.6 32.4 257.85 32.05 257.85 31.95 257.95 31.7 258 31.45 258.15 31.15 259.55 31.15 261.4 31.65 263.25 32.1 264.75 32.6
L 272.3 35.25
Q 272.5 35.45 272.35 35.8
L 272.3 35.95
Q 272.25 36.25 272.55 36.55
L 271.4 38.3 266.3 44.05
Q 265.65 43.75 264.65 43.45 263.6 43.15 262.6 42.5
L 254.05 39.85 254.45 38.4
Q 254.75 37.2 255.25 35.8
M 255.15 45.55
Q 256.7 46 258.55 46.6 260.35 47.2 262.3 47.9 264.2 48.55 265.85 49.35 267.45 50.1 268.65 50.9 269.85 51.7 270.2 52.4 270.25 52.45 270.45 52.5 270.65 52.55 270.6 52.7
L 270.5 53.55
Q 270.4 53.9 270.4 54.2 270.4 54.45 270.5 54.45 270.4 54.55 270.1 54.95 269.85 55.35 269.6 55.75 269.3 56.15 269.05 56.55 268.85 56.9 268.85 57
L 265.5 58.15 250.4 60.65 249.95 59.85
Q 249.8 59.55 249.8 58.8 249.8 58.1 249.8 57.55
L 249.75 57.25 252.8 44.95
Q 253.65 45.15 255.15 45.55
M 244.8 25.9
Q 244.3 25.3 243.4 25.3
L 240.75 26
Q 240.05 26 239.6 25.6 239.15 25.15 238.4 25.15 237.35 25.15 236.6 25.85 235.8 26.55 235.55 27.55 235.35 28.2 235.55 28.8 235.7 29.35 235.95 29.9 236.25 30.45 236.45 31 236.75 31.6 236.75 32.3
L 229.85 59.65
Q 229.6 60.45 229.05 61.05 228.5 61.7 227.95 62.25 227.4 62.85 226.95 63.45 226.45 64.05 226.25 64.75 226 65.8 226.45 66.45 226.95 67.1 227.95 67.1
L 230.7 66.3 233 67
Q 235.15 67 235.75 64.75
L 234.6 59.65 241.35 32.6
Q 241.55 31.9 242.05 31.25 242.6 30.65 243.2 30 243.8 29.4 244.35 28.8 244.85 28.2 245.05 27.5 245.3 26.55 244.8 25.9
M 214.05 28.05
Q 214.1 26.65 213.7 25.9 213.35 25.1 211.95 25.1 211.3 25.1 210.55 25.3 209.85 25.4 209.55 25.45 209.25 25.45 209.05 25.45 208.95 25.45 208.75 25.5 208.6 25.55 208.15 25.65 207.55 25.65 207.3 25.3 207.05 24.9 206.2 24.9 205.45 24.9 204.9 25.35 204.35 25.75 203.65 25.75 203 25.75 202.5 25.4 202.05 25.05 201.3 25.05 200.45 25.05 199.6 25.65 198.7 26.25 198.45 27.2
L 199.65 32.2 199.55 32.6
Q 199.4 33.05 199.25 33.05
L 196 46.1
Q 195.15 49.5 194.4 52.65 193.65 55.8 192.95 58.95
L 189.2 64.75
Q 188.95 65.6 189.4 66.2 189.85 66.85 190.9 66.85
L 193.5 66.2 195.85 67
Q 196.9 67 197.75 65.85 197.9 66.25 198.05 66.4 198.2 66.55 198.85 66.7 198.85 66.75 199.35 66.75 200.4 66.75 201.7 66.05 203 65.35 204.3 64.45 205.6 63.55 206.7 62.6 207.85 61.65 208.65 61.1 208.95 60.85 209.55 60.3 210.15 59.7 210.75 59.1 211.35 58.45 211.8 57.95 212.3 57.45 212.4 57.3 212.75 57.1 213.55 56.6 214.25 56.05 215.1 55.5 215.95 54.9 216.7 54.45 217.45 53.95 217.8 53.75 218.65 53.25 219.5 53 220.25 52.75 221.05 52.55 221.85 52.35 222.6 52.05 223.35 51.8 224.05 51.25
L 224.25 51.25
Q 225.55 50.95 226 50.15 226.4 49.4 226.85 48.45
L 226.95 47.95
Q 228.35 47.4 228.7 46
L 228.8 45.5 228.75 45.4
Q 228.75 45.25 228.8 44.95 228.9 43.5 227.7 42.85 225.7 42.35 224.55 41.5 223.4 40.6 222.2 39.05
L 214.7 29.5 214.05 28.05
M 205.3 30.85
Q 205.75 30.4 206.25 29.9 206.35 31.15 206.75 31.5 207.15 31.85 207.7 31.85 208.3 31.9 209 31.95 209.75 32.05 210.45 32.8
L 215.85 40.3
Q 215.9 40.3 216.5 41 217.15 41.75 217.95 42.65 218.7 43.65 219.4 44.5 220.1 45.4 220.2 45.7 219.55 46.35 218.95 46.75 218.35 47.1 218.05 47.85
L 216.65 49.1
Q 214.35 50.7 212.05 52.5 209.8 54.35 207.6 56.05 205.4 57.8 203.25 59.35 201.1 60.85 198.9 61.9 198.9 61.85 198.8 61.7
L 198.8 61.6
Q 198.6 61.05 198.3 60.2 197.95 59.35 197.85 58.95 198.6 55.55 199.4 52.2 200.15 48.85 201 45.45 201.85 42.1 202.7 38.7 203.6 35.35 204.55 31.95 204.85 31.25 205.3 30.85
M 173.05 31.45
Q 173.7 31.35 174.35 31.35
L 174.5 31.3
Q 174.6 31.25 174.8 31.2
L 181.45 31.2
Q 182.35 31.2 182.85 31.25 183.35 31.35 183.75 31.45 184.2 31.6 184.6 31.75 185.05 31.95 185.8 32.2 186.45 32.4 186.95 32.7 187.45 32.95 187.9 33.15 188.35 33.4 188.85 33.55 189.45 33.65 190.2 33.65
L 190.4 33.65
Q 191.7 33.65 192.1 33.1 192.55 32.55 192.85 31.55 193.05 30.8 193.05 30.15 193.05 29.5 192.6 29
L 192.65 28.85
Q 193.5 28.4 193.75 28 193.95 27.55 194.15 26.9 194.35 26.25 194.15 25.75 193.95 25.25 193.25 25.1 193.2 25.05 192.7 25.05
L 192.55 25.05
Q 191.15 25.05 189.75 25.55 188.35 26 186.95 26.65
L 186.25 26.95
Q 185.35 27.2 184.75 27.25 184.2 27.3 183.6 27.3
L 173.75 27.3
Q 173.3 27.3 173.1 27.25 172.95 27.2 172.85 27.1 172.8 27 172.75 26.95 172.75 26.85 172.5 26.85 172.15 26.5 172 26.15 171.85 25.9 171.65 25.65 171.45 25.4 171.15 25.3 170.8 25.15 170.1 25.15
L 169.95 25.15
Q 170.08828125 25.1533203125 169.75 25.25 169.4 25.35 168.5 25.45
L 167.65 25.55
Q 167.1 25.55 166.75 25.15 166.75 25.05 166.25 25.05 165.1 25.05 164.6 25.4 164.1 25.65 163.65 26.25 163.2 26.85 163.1 27.35
L 163.1 27.95 163.5 31.35
Q 163.75 33.25 163.2 35.65 162.65 38 162.3 40.1
L 158.6 55.05
Q 158.6 55.15 158.4 55.6 158.2 56 158 56.55 157.8 57.1 157.55 57.6 157.3 58.1 157.2 58.35
L 156.35 59.9
Q 155.7 61.1 155.05 61.9 154.4 62.65 154.1 63.8
L 154.05 64.05
Q 153.75 64.85 154.05 65.7 154.35 66.55 154.95 66.55
L 155.2 66.55
Q 155.6 66.55 156.05 66.45 156.45 66.35 156.95 66.35
L 157.1 66.35 157.25 66.45
Q 157.35 66.55 157.45 66.55 157.5 66.65 157.6 66.65
L 157.85 66.7
Q 158.35 66.8 158.75 67 159.2 67.15 159.65 67.15 159.9 67.15 160.15 67.15 160.45 67.1 160.65 67
L 160.75 66.9
Q 160.9 66.9 161.2 66.65
L 162.85 64.8 170.7 64.75
Q 172.5 64.75 173.6 64.8 174.7 64.85 175.4 65 176.1 65.1 176.45 65.3 176.85 65.45 177.1 65.65
L 179.05 66.65
Q 179.65 67.35 180.65 67.35 181.25 67.35 181.75 67
L 184.05 65.9
Q 184.05 65.85 184.1 65.8
L 184.15 65.7 184.35 65.45
Q 184.6 65.15 184.8 64.5 184.9 64.05 184.85 63.9 184.75 63.8 184.7 63.45
L 184.75 63.1
Q 184.75 62.9 184.6 62.9
L 184.5 62.75
Q 184.7 62.2 185 61.4 185.35 60.7 185.45 60.2 185.65 59.35 184.85 58.95 184.1 58.35 183.05 58.35 182 58.35 180.95 58.75 179.95 59.2 178.6 59.55
L 177 60
Q 176.45 60.05 175.5 60.25 174.5 60.45 174 60.45
L 162.8 60.45 162.8 60.4
Q 162.25 58.45 162.8 56.3
L 165.05 47.25 173.75 47.25
Q 174.65 47.25 175.35 47.3 176 47.35 176.55 47.5 177.1 47.65 177.7 47.9 178.3 48.15 179.05 48.5 179.1 48.55 179.65 48.55 180.6 48.55 181.65 47.9 182.65 47.35 182.9 46.4 183.05 45.75 182.85 45
L 183.4 44.55
Q 184.15 43.95 184.4 43.05 184.5 42.45 184.25 41.9 183.85 41.3 182.85 41.3 182.1 41.3 181.15 41.6 180.25 41.85 179.25 42.2 178.25 42.55 177.4 42.85 176.55 43.1 176 43.1 175.65 43.2 174.8 43.25 173.95 43.3 173 43.3 172.1 43.35 171.3 43.35 170.6 43.4 170.55 43.45
L 165.95 43.45 169.25 32.9
Q 169.6 32.85 169.8 32.75 169.95 32.6 170.1 32.45 170.3 32.3 170.5 32.15 170.7 32 171.15 31.9 172.35 31.6 173.05 31.45
M 141.3 30.3
Q 139.2 29.9 137.3 29.5 135.45 29.15 134.8 28.85 134.7 28.75 134.45 28.5 134.15 28.3 133.5 28.05 133.8 27.65 133.95 27.55 134.15 27.45 134.3 26.95 134.6 25.95 134.1 25.3 133.55 24.7 132.55 24.7
L 129.8 25.45 127.25 24.8
Q 126.25 24.8 125.55 25.45 124.8 26.05 124.55 26.95 124.4 29.95 125.9 31.9
L 119.25 58.55
Q 119.05 59.35 118.45 59.95 117.9 60.55 117.25 61.1 116.65 61.7 116.05 62.3 115.5 62.9 115.35 63.6 115.2 64.1 115.25 64.65 115.35 65.25 115.55 65.7 115.75 66.2 116.05 66.55 116.4 66.85 116.9 66.85 117.55 66.85 118.3 66.5 119.05 66.15 119.7 66.15 120.35 66.15 120.75 66.55 121.1 67 121.8 67 122.85 67 123.75 66.3 124.7 65.65 124.95 64.65 125.15 64 125 63.4 124.85 62.85 124.6 62.3 124.35 61.75 124.1 61.2 123.85 60.65 123.85 59.95
L 125.45 53.5 135.5 48.15
Q 135.55 49.05 136.15 49.35 137.05 49.8 137.7 50.4 138.4 50.95 139.15 52.05 139.85 53.2 140.7 55 141.55 56.85 142.8 59.8
L 143.15 61.4
Q 143 62.25 142.8 63.2 142.6 64.15 142.7 65 142.8 65.85 143.3 66.4 143.75 67 144.85 67 145.55 67 145.85 66.7 146.15 66.35 146.3 66 146.45 65.6 146.65 65.3 146.85 64.95 147.3 64.85
L 148.65 65
Q 149.65 64.7 150.15 63.7 150.65 62.75 150.9 61.75 151.3 60.15 150.9 59.4 150.5 58.65 149.75 58.15 149.05 57.6 148.2 57.15 147.35 56.75 146.9 55.75 145.8 53.75 144.6 51.75 143.4 49.7 142.75 46.9 143.05 46.25 143.2 46
L 143.35 45.7
Q 143.6 44.85 143.45 44.45 143.3 44.05 143.3 43.55 145.05 42.5 146.2 41.8 147.35 41.05 148.2 40.6 148.95 40.15 149.6 39.95 150.25 39.8 151 39.8
L 151.55 39.85
Q 152.1 39.85 152.15 39.9 153 39.55 153.55 39.2 154.15 38.75 154.45 38.05 154.55 37.95 154.6 37.45 154.75 37.15 154.5 36.75 154.25 36.3 154.15 36.05 154.55 35.7 155.1 35.3 155.65 34.8 155.75 34.35 156 33.4 155.4 32.3 154.75 31.45 154.1 30.85 153.4 30.25 152.55 30.25 151.55 30.25 150.4 30.75 149.25 31.25 148.1 31.25
L 147.6 31.25
Q 147.2 31.25 147.1 31.2 146.85 31.2 145.1 30.95 143.4 30.7 141.3 30.3
M 130.65 32.8
Q 130.75 32.85 130.85 32.9
L 130.9 32.9
Q 131.15 32.9 131.2 32.95
L 147.05 35.85 147.1 35.9
Q 146.15 36.9 145.65 37.4 145.15 37.95 145.05 38 143.85 38.9 141.4 40.4 138.9 41.85 136.1 43.35 133.25 44.9 130.7 46.2 128.1 47.45 126.8 48.05
L 130.65 32.8
M 107.4 24.5
L 107.3 24.5
Q 106.65 24.5 106.3 24.7 106.05 24.9 105.6 25.25
L 105 25.95
Q 104.75 25.6 104.5 25.45 104.2 25.35 103.05 25.35 101.9 25.35 101.15 25.75 100.4 26.1 99.9 26.75 99.4 27.35 99.1 28.15 98.8 28.95 98.65 29.65
L 98.55 30.15 97.15 31.35
Q 95.5 32.4 93.85 33.8 92.25 35.15 90.8 36.45 89.4 37.7 88.3 38.7 87.2 39.75 86.5 40.1
L 85.4 40.65 85.2 40.65
Q 84.9 40.65 84.3 40.65 83.7 40.7 83.35 40.75 82.1 40.75 81.4 41.35 80.8 41.95 80.5 43.15 80.4 43.35 80.6 44.05 80.8 44.7 80.9 45 80.85 45.15 80.5 45.85 80.15 46.55 79.8 47.3 79.45 48.15 79.45 48.2 79.3 48.85 79.45 49.65 79.55 50.5 80.1 50.5
L 80.65 50.5
Q 81.25 50.5 82.2 51.85 83.2 53.2 84.25 55.1 85.3 57 86.5 59.2 87.65 61.35 88.7 62.95 88.5 63.65 88.4 64.45 88.35 65.25 88.5 65.85 88.7 66.5 89.25 66.9 89.75 67.35 90.85 67.35
L 90.9 67.35
Q 91.65 67.35 92.05 67.15 92.4 66.9 92.65 66.65 92.9 66.35 93.15 66.1 93.35 65.85 93.8 65.7 93.85 65.7 94 65.65 94.15 65.6 94.3 65.55 94.65 65.5 94.8 65.45 94.95 65.45 95 65.45 95.35 65.45 95.5 65.5 95.65 65.55 95.8 65.55 96.2 65.6 96.35 65.85 96.5 66.05 96.65 66.3 96.8 66.55 97.05 66.8 97.35 67 98 67
L 98.1 67
Q 99.05 67 99.75 66.6 100.45 66.2 100.9 65.6 101.35 64.95 101.65 64.2 101.9 63.45 102.05 62.8
L 102.2 62.25
Q 103.9 60.65 105.45 59.6 107 58.55 108.3 57.95 109.65 57.25 110.8 56.85 111.9 56.4 112.9 56
L 114.25 55.4
Q 115.5 54.45 115.75 53.35 116 52.35 115.35 51.8 114.75 51.25 113.75 50.95
L 113.75 50.65
Q 113.6 49.95 113.45 49.6 113.3 49.3 112.15 49.3
L 111.9 49.3
Q 110.5 49.3 109.7 49.95 108.95 50.6 108.5 51.45 108.1 52.35 107.7 53.25 107.35 54.15 106.7 54.6 105.25 55.75 104.3 56.3 103.35 56.9 102.6 57.15 101.9 57.45 101.2 57.6 100.6 57.8 99.8 58.15
L 99.5 58.3
Q 98.8 58.55 98.4 58.8 97.95 59 97.5 59.25 97.1 59.5 96.7 59.85 96.3 60.2 95.7 60.75 94.15 60.2 92.8 58.65 91.45 57.15 90.35 55.3 89.25 53.5 88.35 51.6 87.5 49.7 86.9 48.45 86.8 48.3 86.8 48.25 86.8 48.15 86.7 48.05 87.45 47.35 87.65 47.1 87.85 46.85 87.9 46.6
L 88.1 46
Q 88.2 45.7 88.35 45 88.5 44.3 88.75 44.05 89.9 43.05 91.65 41.5 93.45 39.95 95.4 38.35 97.4 36.75 99.35 35.3 101.3 33.85 102.7 33.05
L 103.3 32.75
Q 103.5 32.55 103.75 32.4 104.05 32.25 104.3 32.1 106.75 34.05 108.55 35.15 110.35 36.25 110.6 36.85 110.95 37.55 110.95 38.35 110.95 39.1 111.1 39.75 111.25 40.4 111.7 40.8 112.1 41.25 113.25 41.25
L 113.3 41.25
Q 114.6 41.25 115 40.85 115.45 40.45 116 39.55
L 116.3 39.15 116.8 38.95
Q 117.7 38.65 118.4 38.4 119.1 38.15 119.4 37.1
L 119.4 37
Q 119.55 36.85 119.55 36.75 119.65 36.25 119.25 35.65 118.85 35 118.65 34.7
L 118.45 34.45
Q 117.5 34.1 116.6 33.85 115.75 33.6 115 33.35 114.25 33.1 113.6 32.7 113 32.35 112.45 31.7
L 108.65 29 109.35 26.5
Q 109.55 25.65 109.25 25.05 108.9 24.5 107.4 24.5
M 82.6 27.1
Q 82.65 26.5 82.35 26.1 81.85 25.3 80.4 25.3
L 79.95 25.3
Q 79.85 25.35 79.45 25.4 78.5 25.7 77.85 26.25
L 77.75 26.25
Q 77.55 25.95 77.2 25.8 76.85 25.7 76.55 25.6
L 76.4 25.55
Q 75.95 25.45 75.65 25.4 75.35 25.35 75.1 25.35 74.45 25.35 74.15 25.6 73.9 25.8 73.05 26.35 72.45 26.75 72.25 27.15 72.1 27.55 71.95 28.05 71.75 29.15 72.2 30.15
L 73.3 32.9
Q 73.65 33.4 73.6 33.95 73.6 34.5 73.45 35.15
L 68.2 56.15 66.1 54.1 55 34.05
Q 54.85 33.9 54.85 33.5 54.85 33.05 54.5 32.55 54.85 32.25 54.85 32 54.85 31.7 55.35 31.2 56.4 30.25 56.65 29.2 56.95 27.6 56 26.3 55.5 25.7 54.85 25.7 54.55 25.95 53.8 25.95
L 53.45 25.95
Q 53.1 25.95 52.9 26.1 52.7 26.3 52.5 26.5 52.3 26.75 52 26.9 51.75 27.1 51.3 27.1
L 49.25 26.05
Q 46.5 26.6 45.8 29.5
L 45.5 31.25 46.3 33.45 47.15 34
Q 47.2 34.05 47.15 34.15
L 41.25 57.85
Q 41.1 58.5 41.05 58.7 40.95 58.85 40.65 59.2
L 40.45 59.35
Q 39.8 59.85 39.35 60.25 38.95 60.7 38.3 61.35 37.3 62.45 37 63.55 36.55 65.3 37.45 66.5 38 67.1 38.6 67.1 39.45 67.1 40.4 66.65 41.4 66.15 42.5 65.95
L 42.75 65.95
Q 43.15 65.95 43.4 66.1 43.6 66.25 43.75 66.45 43.95 66.7 44.1 66.85 44.25 67 44.6 67 45.55 67 46.4 66.05 47.05 65.55 47.45 64.95 47.85 64.35 48.05 63.5 48.25 62.85 48.15 62.2 48.05 61.6 47.55 61.05 47.15 60.55 47.2 60.2 47.25 59.85 46.85 59.35 46.55 59.05 46.35 58.7 46.15 58.35 46.15 57.65
L 51.1 37.9 57.95 52.1 64.05 60.8 63.55 62.2
Q 63.25 62.6 63.25 62.75 63.2 62.85 63.05 63.15 62.75 64.5 63.55 65.5 64.25 66.5 65.45 66.5 65.8 66.5 66.35 66.35 66.95 66.2 67.5 65.85
L 68.05 65.6
Q 68.7 65.7 68.75 66 68.8 66.25 68.65 66.55 68.55 66.85 68.7 66.85 69 67.05 69.4 67.1 69.8 67.15 70 67.15 70.35 67.15 70.6 66.9 70.9 66.65 71.35 66.3 71.75 66.25 72.25 65.55 72.75 64.8 73.15 63.95 73.6 63.1 73.85 62.35 74.1 61.65 74.1 61.6
L 74.1 61.45
Q 74.25 60.9 74 60.2 73.75 59.5 73.25 59.35
L 72.9 59.15
Q 72.6 58.45 72.7 57.85 72.8 57.25 72.95 56.6
L 78.55 34.15
Q 78.45 34.05 78.55 33.75
L 78.75 33.15
Q 78.85 32.85 79 32.8
L 81.4 30.55
Q 81.85 30.05 82.05 29.55 82.25 29 82.4 28.35 82.6 27.65 82.6 27.1
M 41.35 26.95
Q 41.65 25.9 41.3 25.3 40.9 24.75 39.55 24.75 38.75 24.75 38.15 24.9 37.55 25.1 37 25.35 36.45 25.6 35.8 25.85 35.25 26.1 34.5 26.3 32.7 26.85 31.25 27 29.8 27.15 27.95 27.15 25.9 27.15 24.25 27 22.65 26.9 20.85 26.25 20.35 26.05 19.95 25.75 19.55 25.45 19.15 25.2 18.75 24.9 18.25 24.7 17.85 24.5 17.1 24.5 15.95 24.5 15.35 25.1 14.7 25.75 14.45 26.65 14.35 27.15 14.35 27.6 14.4 28.1 14.5 28.55
L 14.5 28.75 14.35 29
Q 13.95 29.5 13.55 29.9 13.2 30.4 13.1 31 12.8 32 13.4 32.55 14.05 33.1 15.2 33.1 16.25 33.1 17.15 32.6 18.05 32.2 19.1 31.55
L 19.95 30.9 20.15 30.9
Q 20.85 30.9 21.85 30.85 22.85 30.75 23.7 30.7 23.95 31.15 24 31.6 24.05 32.05 23.95 32.6
L 17.2 59.65 15.7 61
Q 15.05 60.85 14.4 60.75 13.75 60.7 13.15 60.45 12.55 60.05 12.1 59.7 11.65 59.35 11.1 59.1 10.6 58.8 10.05 58.65 9.5 58.45 8.65 58.45
L 7.8 58.45
Q 6.25 58.7 5.75 60.25 5.45 61.45 6.5 62.25
L 6.5 62.35
Q 5.1 63.45 4.85 64.75 4.55 65.8 4.95 66.35 5.35 66.9 6.7 66.9 8.35 66.9 9.35 66.35 10.4 65.8 11.75 65.45 12.75 65.15 13.5 65 14.3 64.8 15 64.75 15.7 64.65 16.5 64.6 17.25 64.6 18.2 64.6 20.25 64.6 21.95 64.75 23.65 64.85 25.4 65.55 25.85 65.7 26.3 66 26.7 66.25 27.1 66.55 27.55 66.8 28 67 28.5 67.15 29.15 67.15 30.35 67.15 30.9 66.55 31.5 65.9 31.75 65 31.85 64.45 31.8 64 31.75 63.5 31.6 62.9
L 31.75 62.85
Q 32.2 62.3 32.6 61.85 32.95 61.35 33.1 60.7 33.35 59.65 32.8 59.15 32.2 58.55 31.05 58.55 30 58.55 29.15 59.05 28.25 59.5 27.25 60.15
L 26.35 60.8 22.25 61
Q 22.15 60.85 22 60.7 21.85 60.5 21.95 59.65
L 28.8 32.3
Q 29.3 31.25 29.95 30.75 30.75 30.8 31.2 30.9 31.6 31 32.35 31.2
L 33 31.6
Q 34.05 32.25 35.15 32.7 36.25 33.2 37.65 33.2
L 38.4 33.2
Q 40.05 32.85 40.4 31.4 40.75 30.35 39.7 29.4
L 39.7 29.3
Q 40.95 28.35 41.35 26.95 Z"/>
</g>
</defs>

<g transform="matrix( 1, 0, 0, 1, 0,0) ">
<use xlink:href="#Layer1_0_FILL"/>
</g>

<g transform="matrix( 1, 0, 0, 1, 0,0) ">
<use xlink:href="#Layer1_1_FILL"/>
</g>

<g transform="matrix( 1, 0, 0, 1, 0,0) ">
<use xlink:href="#Layer0_0_FILL"/>
</g>
</svg>
